<?xml version="1.0" encoding="UTF-8"?>
<svg version="1.1" xmlns="http://www.w3.org/2000/svg" width="1024" height="1024">
<path d="M0 0 C337.92 0 675.84 0 1024 0 C1024 337.92 1024 675.84 1024 1024 C686.08 1024 348.16 1024 0 1024 C0 686.08 0 348.16 0 0 Z " fill="#FDFDFD" transform="translate(0,0)"/>
<path d="M0 0 C10.99807211 6.32793487 20.47708789 14.93356126 29.60302734 23.66601562 C30.79431246 24.80358673 31.99929764 25.92678224 33.20703125 27.046875 C54.93200615 47.75418305 69.74463611 76.84117228 76.8125 105.75 C77.01963623 106.58877686 77.22677246 107.42755371 77.44018555 108.29174805 C88.59667416 156.53310061 73.286524 209.7936379 48 251 C44.52098102 256.46823323 40.81746692 261.76399708 37 267 C36.60039063 267.55123535 36.20078125 268.1024707 35.7890625 268.67041016 C27.80143526 279.64334606 19.16938898 290.00114327 10 300 C9.13375 300.94746094 8.2675 301.89492188 7.375 302.87109375 C5.52257939 304.89604861 3.66654753 306.91762184 1.80859375 308.9375 C-0.02175006 310.9289545 -1.83956879 312.92983171 -3.65234375 314.9375 C-9.33474297 321.21233731 -15.18110293 327.26865449 -21.22973633 333.19287109 C-24.39694972 336.31243334 -27.27331751 339.47675858 -30 343 C-32.51186892 345.64407254 -35.03183849 348.02560922 -37.875 350.3125 C-41.02984706 352.88640335 -43.57017557 355.85833494 -46.20703125 358.94921875 C-48.98325083 362.1246333 -51.99033595 365.04835357 -55 368 C-55.845625 368.86625 -56.69125 369.7325 -57.5625 370.625 C-60.2537508 373.24724436 -63.1140627 375.59505225 -66 378 C-67.67894644 379.65429574 -69.34354177 381.32318705 -71 383 C-72.03387756 384.0399322 -73.06816029 385.07946169 -74.1027832 386.11865234 C-74.93438713 386.95509781 -74.93438713 386.95509781 -75.78279114 387.80844116 C-78.29594216 390.33510504 -80.81186425 392.8590025 -83.32788086 395.3828125 C-84.64649492 396.7064551 -85.96421003 398.03099387 -87.28100586 399.35644531 C-100.27093434 412.42925711 -100.27093434 412.42925711 -106.45385742 417.67431641 C-108.58759678 419.50381344 -110.54380807 421.48361755 -112.5 423.5 C-115.80626792 426.90799924 -119.29382463 430.02108274 -122.87646484 433.13037109 C-126.3515404 436.1899398 -129.70319986 439.37699081 -133.0625 442.5625 C-134.5544663 443.97158842 -136.04665831 445.38043788 -137.5390625 446.7890625 C-138.28317383 447.49192383 -139.02728516 448.19478516 -139.79394531 448.91894531 C-143.16681768 452.10070318 -146.54948778 455.27187368 -149.9375 458.4375 C-150.86381226 459.3030249 -150.86381226 459.3030249 -151.80883789 460.18603516 C-156.1125159 464.19692623 -160.47861295 468.13292839 -164.8671875 472.05078125 C-167.42387252 474.38738533 -169.84809514 476.83336708 -172.2734375 479.3046875 C-174.81283081 481.79811894 -177.50030389 484.10826013 -180.203125 486.421875 C-182.01968133 487.96801194 -182.01968133 487.96801194 -183.609375 489.703125 C-185 491 -185 491 -187 491 C-199.32044594 462.33064414 -211.57453229 433.63220596 -223.61013794 404.84197998 C-227.78819808 394.84984032 -232.04118477 384.89151062 -236.32568359 374.94458008 C-241.26209151 363.4520308 -246.05846148 351.90178742 -250.83740234 340.34301758 C-254.08755834 332.49551053 -257.40566677 324.69828748 -261 317 C-257.86180382 317 -256.51619924 317.51173377 -253.7109375 318.79296875 C-252.85991455 319.17380615 -252.0088916 319.55464355 -251.13208008 319.94702148 C-250.22224365 320.35637939 -249.31240723 320.7657373 -248.375 321.1875 C-241.61754332 324.15598949 -234.90783694 326.88779033 -227.8125 328.9375 C-227.16780762 329.12401123 -226.52311523 329.31052246 -225.85888672 329.50268555 C-223.9136288 330.03931703 -221.96096215 330.52418181 -220 331 C-219.32050293 331.18401367 -218.64100586 331.36802734 -217.94091797 331.55761719 C-210.04476268 333.46083657 -202.07442932 333.37218702 -193.99902344 333.37060547 C-191.53248091 333.37494288 -189.06778581 333.4112541 -186.6015625 333.44921875 C-175.22942026 333.52816435 -164.98569577 331.85260013 -154 329 C-152.16712601 328.58131734 -150.33392301 328.16406354 -148.5 327.75 C-127.15220925 321.63662041 -109.45614096 309.60307147 -94 294 C-93.15824219 293.18015625 -92.31648437 292.3603125 -91.44921875 291.515625 C-71.16382918 270.61771034 -60.40519315 238.53179955 -59.75 209.8125 C-60.6281119 169.85840851 -76.27701299 134.79477558 -105 107 C-105.80050781 106.18789063 -106.60101562 105.37578125 -107.42578125 104.5390625 C-119.04341029 93.08009607 -132.30303565 84.99098845 -147 78 C-143.21397682 76.59808644 -140.68800857 77.42649804 -136.8984375 78.58984375 C-135.69477539 78.95779053 -134.49111328 79.3257373 -133.25097656 79.70483398 C-131.95853905 80.11431975 -130.66655485 80.52523869 -129.375 80.9375 C-128.72172729 81.14351837 -128.06845459 81.34953674 -127.39538574 81.5617981 C-96.51733808 91.33441703 -71.5476084 107.56818916 -48 129.6875 C-33.8350928 142.46141795 -17.27970583 150.11493642 2.02783203 149.18798828 C7.27152707 148.688156 12.12855832 146.90997782 17 145 C17.73734375 144.72285156 18.4746875 144.44570313 19.234375 144.16015625 C28.95779261 139.94019301 36.74014042 131.58468405 41 122 C50.33246691 96.88393467 47.43971141 72.87546378 36.4375 48.6875 C30.26973416 35.65669824 21.88186558 24.44333522 12 14 C10.74417173 12.5466826 9.49380758 11.0886184 8.25 9.625 C5.72789255 6.70899698 3.03176915 4.3886666 0 2 C0 1.34 0 0.68 0 0 Z " fill="#28557D" transform="translate(702,317)"/>
<path d="M0 0 C1.85024163 1.72644608 3.62418136 3.47299874 5.33984375 5.33203125 C7.11098726 7.17789383 7.11098726 7.17789383 9.796875 9.20703125 C13.55949987 12.30993365 16.39258184 15.99160568 19.3125 19.875 C19.87791504 20.62386475 20.44333008 21.37272949 21.02587891 22.14428711 C42.13560305 50.52527161 51.3683667 82.00125611 47.60546875 117.4609375 C43.75275114 141.57149289 32.42315795 163.19974496 16 181 C15.39671875 181.67289063 14.7934375 182.34578125 14.171875 183.0390625 C1.70378143 196.29397751 -15.67955454 205.90134073 -33 211 C-33.64517578 211.19464844 -34.29035156 211.38929688 -34.95507812 211.58984375 C-58.55993314 218.54180298 -83.7759151 215.63011844 -105.50390625 204.1484375 C-130.08783787 189.57803175 -146.7648126 167.85917466 -154.39794922 140.37988281 C-159.13993767 121.63499092 -160.09436306 101.7162469 -155 83 C-154.74476563 81.83855469 -154.48953125 80.67710937 -154.2265625 79.48046875 C-148.8342209 56.25382306 -135.47872342 36.83554617 -119 20 C-138.92751053 29.2649984 -160.79904878 42.59809757 -171 63 C-171.66 63 -172.32 63 -173 63 C-173.09796875 62.39414062 -173.1959375 61.78828125 -173.296875 61.1640625 C-175.58236181 48.35745537 -180.31307418 38.23356319 -190.64453125 29.85546875 C-196.74480863 25.71007282 -202.79478662 23.46334121 -210 22 C-201.96446776 -0.34757475 -177.52094638 -17.14803375 -157.0546875 -26.90625 C-104.89436701 -51.01952361 -42.9098305 -35.63204378 0 0 Z " fill="#52AADC" transform="translate(574,427)"/>
<path d="M0 0 C0.72781677 0.30204346 1.45563354 0.60408691 2.20550537 0.9152832 C4.60649452 1.91455484 7.00031793 2.9299263 9.39453125 3.9453125 C11.1011514 4.65889381 12.80827636 5.37126885 14.51586914 6.08251953 C18.16318715 7.60316351 21.80794693 9.12973318 25.45117188 10.66015625 C31.34468884 13.13246016 37.2508943 15.57342172 43.16015625 18.0078125 C44.1521553 18.41653091 45.14415436 18.82524933 46.16621399 19.24635315 C48.16373078 20.06925796 50.16127403 20.89209853 52.15884399 21.71487427 C64.85501948 26.94712346 77.54208339 32.20041712 90.20703125 37.5078125 C99.11406859 41.24035346 108.08175747 44.80911028 117.05975342 48.36703491 C130.38732313 53.65898552 143.57477838 59.27286786 156.75 64.93188477 C158.35272027 65.61898907 159.95558355 66.30575988 161.55859375 66.9921875 C162.3384967 67.32653305 163.11839966 67.6608786 163.92193604 68.00535583 C170.86292047 70.96245556 177.8678805 73.75221805 184.90591431 76.46990967 C185.70186005 76.78180237 186.49780579 77.09369507 187.31787109 77.41503906 C188.02197113 77.68721252 188.72607117 77.95938599 189.45150757 78.23980713 C191.20703125 79.0703125 191.20703125 79.0703125 193.20703125 81.0703125 C187.11328125 83.1015625 181.01953125 85.1328125 174.92578125 87.1640625 C174.26685883 87.3837117 173.6079364 87.6033609 172.92904663 87.82966614 C171.60242716 88.27185566 170.2757873 88.71398402 168.9491272 89.15605164 C165.89448317 90.17398975 162.84020011 91.1929823 159.78662109 92.21411133 C149.18811422 95.75657846 138.53306349 99.08019563 127.828125 102.28515625 C126.84096497 102.58074684 126.84096497 102.58074684 125.8338623 102.88230896 C122.50802905 103.87756683 119.1815108 104.87045962 115.85400391 105.86010742 C108.11090814 108.16652406 108.11090814 108.16652406 100.4375 110.69140625 C95.6869087 112.30421018 90.8465524 113.40340782 85.95703125 114.5078125 C80.07456948 115.86766761 74.2683783 117.272676 68.51953125 119.1328125 C62.83433144 120.96413818 57.10526525 122.28628122 51.26293945 123.50024414 C44.57314496 124.91094343 37.99111754 126.70099563 31.3927002 128.48217773 C24.88707304 130.23275644 18.37166421 131.94593165 11.85229492 133.64453125 C10.1169654 134.09858098 8.38259769 134.55632128 6.64916992 135.01757812 C4.09917573 135.69547605 1.54614775 136.36066032 -1.0078125 137.0234375 C-2.15490944 137.33272186 -2.15490944 137.33272186 -3.32518005 137.64825439 C-10.90611659 139.58854515 -17.29009664 139.46200119 -24.94140625 137.4609375 C-25.91710068 137.21071838 -25.91710068 137.21071838 -26.9125061 136.95544434 C-28.29088271 136.60100874 -29.6681843 136.24236873 -31.04443359 135.87976074 C-34.63029457 134.93506076 -38.22391824 134.02067093 -41.81640625 133.1015625 C-42.86752594 132.83119171 -42.86752594 132.83119171 -43.93988037 132.55535889 C-49.20345449 131.20564849 -54.48072589 129.96154613 -59.79296875 128.8203125 C-71.71371124 126.24113994 -83.49539514 123.15445708 -95.29296875 120.0703125 C-105.41214255 117.42276374 -105.41214255 117.42276374 -115.54296875 114.8203125 C-116.6928125 114.52640625 -117.84265625 114.2325 -119.02734375 113.9296875 C-123.92162077 112.81273631 -128.84864219 111.93439136 -133.79296875 111.0703125 C-132.16772003 111.61206207 -130.54247106 112.15381088 -128.91722107 112.69555664 C-127.45681866 113.18236089 -125.99642043 113.66917768 -124.536026 114.15600586 C-120.4667407 115.51249656 -116.3973796 116.86875915 -112.32788086 118.22460938 C-105.05559026 120.64777014 -97.78358663 123.07169368 -90.515625 125.5078125 C-89.45859375 125.86166016 -88.4015625 126.21550781 -87.3125 126.58007812 C-85.42274651 127.21290839 -83.53338374 127.84690739 -81.64453125 128.48242188 C-77.12399385 129.99493251 -72.59141675 131.44728744 -68.03125 132.8359375 C-62.04611011 134.66327263 -56.09498806 136.58640407 -50.14453125 138.5234375 C-47.22925546 139.46757622 -44.31365194 140.41069623 -41.39794922 141.35351562 C-39.39947148 142.00188297 -37.40208294 142.65361658 -35.40576172 143.30859375 C-32.48834167 144.26471901 -29.56695204 145.20772562 -26.64453125 146.1484375 C-25.75899567 146.44212219 -24.87346008 146.73580688 -23.96109009 147.03839111 C-16.25039687 149.49738845 -10.43557459 149.57227685 -2.66796875 147.0078125 C-1.99564209 146.78883301 -1.32331543 146.56985352 -0.63061523 146.34423828 C1.65232311 145.59709482 3.92959903 144.83406583 6.20703125 144.0703125 C8.00503666 143.47474189 9.80322062 142.8797101 11.6015625 142.28515625 C15.16886321 141.10282765 18.73404302 139.91447619 22.296875 138.71875 C23.52809082 138.30556519 23.52809082 138.30556519 24.78417969 137.8840332 C26.376191 137.34935226 27.96799449 136.81405205 29.55957031 136.27807617 C34.38064538 134.66057354 39.22046349 133.12353939 44.08203125 131.6328125 C48.77615101 130.18366527 53.41699992 128.66878549 58.01953125 126.9453125 C61.57062058 125.616312 65.09969939 124.52364871 68.76953125 123.5703125 C72.20607794 122.66900222 75.43374643 121.63633626 78.70703125 120.2578125 C83.64310219 118.20573806 88.67799323 116.56101018 93.76953125 114.9453125 C94.56101562 114.69160889 95.3525 114.43790527 96.16796875 114.17651367 C96.94527344 113.93263916 97.72257812 113.68876465 98.5234375 113.4375 C99.20865479 113.22206543 99.89387207 113.00663086 100.59985352 112.78466797 C104.43205176 111.73466216 108.32820683 110.93227348 112.20703125 110.0703125 C112.20703125 133.1703125 112.20703125 156.2703125 112.20703125 180.0703125 C109.94817222 178.94088298 107.69060989 177.80882411 105.4375 176.66796875 C104.43332031 176.16136719 103.42914062 175.65476562 102.39453125 175.1328125 C100.89986328 174.37677734 100.89986328 174.37677734 99.375 173.60546875 C92.61526682 170.3297904 86.26422449 168.15348754 78.95703125 166.4453125 C78.07917969 166.22875 77.20132812 166.0121875 76.296875 165.7890625 C66.09519621 163.36933781 56.0349787 162.90338891 45.58203125 162.9453125 C44.61007812 162.94144531 43.638125 162.93757812 42.63671875 162.93359375 C32.35028635 162.9474196 23.120357 164.33560195 13.20703125 167.0703125 C11.60601563 167.5034375 11.60601563 167.5034375 9.97265625 167.9453125 C3.09606792 169.91945269 -2.8624495 172.46853347 -9.0390625 176.09375 C-14.17994518 177.91675804 -18.42016787 174.82418931 -23.09472656 172.60791016 C-35.92094893 166.59983758 -49.62076861 163.45560872 -63.79296875 163.0703125 C-64.51709961 163.04984863 -65.24123047 163.02938477 -65.98730469 163.00830078 C-90.16916296 162.41861822 -114.71578885 165.28843419 -135.234375 179.15234375 C-136.79296875 180.0703125 -136.79296875 180.0703125 -138.79296875 180.0703125 C-139.12296875 156.6403125 -139.45296875 133.2103125 -139.79296875 109.0703125 C-148.87190454 106.80057855 -152.98655715 106.0377901 -161.04296875 110.5078125 C-161.69974609 110.87052246 -162.35652344 111.23323242 -163.03320312 111.60693359 C-177.57716662 119.91522616 -184.1520014 131.23642388 -188.79296875 147.0703125 C-192.75296875 146.7403125 -196.71296875 146.4103125 -200.79296875 146.0703125 C-198.8893104 132.11015127 -192.31040105 120.39123916 -181.79296875 111.0703125 C-166.39972603 99.42410913 -148.82791403 95.96109995 -130.32577515 92.36054993 C-122.19862687 90.77287302 -114.10172817 89.04333441 -106.00045776 87.32946777 C-90.32451841 84.01967285 -74.63324682 80.7832661 -58.92797852 77.6156311 C-56.93301916 77.2127841 -54.93838499 76.80832313 -52.9440918 76.40219116 C-50.16810664 75.83749623 -47.39091563 75.27917428 -44.61328125 74.72265625 C-43.79131256 74.55437317 -42.96934387 74.38609009 -42.12246704 74.21270752 C-32.38446505 72.28039401 -32.38446505 72.28039401 -28.66015625 74.12890625 C-28.00273437 74.58394531 -27.3453125 75.03898437 -26.66796875 75.5078125 C-21.39592354 79.10798345 -17.0633515 79.61427315 -10.79296875 79.0703125 C-3.8602431 77.64562616 0.31294101 75.06691331 4.51953125 69.2578125 C5.61514691 65.77176267 5.95698896 62.62763402 5.20703125 59.0703125 C2.77822381 54.71401731 -0.84864052 51.20190698 -5.61328125 49.5078125 C-12.86256136 48.05275986 -20.64389886 47.90548481 -27.1875 51.65625 C-29.08588626 53.32830797 -29.87335027 54.93168736 -30.98046875 57.1953125 C-32.10229492 59.20385742 -32.10229492 59.20385742 -33.79296875 61.0703125 C-36.30712891 61.7565918 -36.30712891 61.7565918 -39.39453125 62.08203125 C-44.65873634 62.75317654 -49.78422388 63.62813048 -54.9609375 64.76953125 C-55.67850723 64.92652496 -56.39607697 65.08351868 -57.13539124 65.24526978 C-58.63794999 65.57539461 -60.14019762 65.90693833 -61.64215088 66.23980713 C-65.71258979 67.14152765 -69.78599053 68.02966488 -73.859375 68.91796875 C-74.68939026 69.09918274 -75.51940552 69.28039673 -76.37457275 69.46710205 C-84.00223003 71.12705008 -91.64562711 72.7047577 -99.29473877 74.26235962 C-104.81442318 75.38789161 -110.33112795 76.52798905 -115.84771729 77.6685791 C-117.74896946 78.06122577 -119.65060358 78.45202159 -121.55224609 78.84277344 C-149.43153104 84.29910865 -149.43153104 84.29910865 -174.9296875 96.296875 C-179.6066308 97.56022394 -183.35917174 95.71159729 -187.79296875 94.0703125 C-189.22515747 93.54945068 -189.22515747 93.54945068 -190.6862793 93.01806641 C-194.76142919 91.50919653 -198.81514363 89.94630363 -202.87109375 88.38671875 C-209.11355291 86.00978238 -215.36338179 83.88396811 -221.79296875 82.0703125 C-221.79296875 81.4103125 -221.79296875 80.7503125 -221.79296875 80.0703125 C-220.85018066 79.6892334 -219.90739258 79.3081543 -218.93603516 78.91552734 C-201.17241212 71.7334169 -183.42057822 64.52510005 -165.71109009 57.2104187 C-154.52916652 52.59294912 -143.32251928 48.03920377 -132.10546875 43.5078125 C-120.17150851 38.68628497 -108.27637947 33.78384388 -96.41818237 28.77905273 C-84.15159696 23.60494912 -71.82591437 18.58211628 -59.47167969 13.62109375 C-52.0487378 10.63597482 -44.65507821 7.60526015 -37.31640625 4.41796875 C-35.34661505 3.57079204 -33.37635698 2.72470828 -31.40606689 1.87869263 C-29.60196548 1.09591061 -27.80736492 0.29134354 -26.01318359 -0.51391602 C-24.92473145 -0.98112061 -23.8362793 -1.4483252 -22.71484375 -1.9296875 C-21.7825293 -2.3421875 -20.85021484 -2.7546875 -19.88964844 -3.1796875 C-12.87178001 -4.87937938 -6.45174569 -2.7786082 0 0 Z " fill="#27547C" transform="translate(524.79296875,208.9296875)"/>
<path d="M0 0 C0.99 0.495 0.99 0.495 2 1 C1.02160156 1.82242187 0.04320312 2.64484375 -0.96484375 3.4921875 C-27.99854757 26.41679597 -49.53561753 58.41175931 -52.7265625 94.5703125 C-55.23336025 130.22432131 -48.67767043 167.89254982 -24.8828125 195.83984375 C-24.26148438 196.55269531 -23.64015625 197.26554688 -23 198 C-22.46117187 198.68191406 -21.92234375 199.36382812 -21.3671875 200.06640625 C-10.16336878 213.89527428 5.56689111 221.8088485 23 224 C37.98144177 224.45251388 49.01341837 219.29328433 60.328125 209.640625 C65.36683993 204.66084241 69.12313544 198.8877677 73 193 C74.19837339 191.20125942 75.39764936 189.40311997 76.59765625 187.60546875 C78.46529208 184.80702538 80.32943276 182.00674197 82.17895508 179.19628906 C88.1868666 170.08930859 88.1868666 170.08930859 91 167 C91.66 167 92.32 167 93 167 C91.61464986 170.80045251 89.82392964 174.24164074 87.87744141 177.7722168 C67.53529874 214.7879048 70.67435173 255.62810191 82 295 C93.75930331 334.14112558 112.78940535 370.74404654 131 407.1875 C131.47651001 408.14160767 131.95302002 409.09571533 132.44396973 410.07873535 C138.06500286 421.31934426 143.7990669 432.49167118 149.67822266 443.59936523 C151.8176176 447.64439112 153.92281936 451.70605058 156.01171875 455.77734375 C156.47507126 456.67905556 156.47507126 456.67905556 156.94778442 457.59898376 C158.17142734 459.98103648 159.39426592 462.36349178 160.61254883 464.74829102 C164.43533262 472.22598984 168.40859261 479.52742945 172.82348633 486.67407227 C173.21173584 487.44162842 173.59998535 488.20918457 174 489 C173.67 489.66 173.34 490.32 173 491 C172.154375 490.14277344 171.30875 489.28554688 170.4375 488.40234375 C162.50878481 480.39538415 162.50878481 480.39538415 154.140625 472.85546875 C151.28635924 470.38142452 148.52028871 467.81733863 145.75 465.25 C145.19038574 464.73155518 144.63077148 464.21311035 144.05419922 463.67895508 C142.91923623 462.62747876 141.78430784 461.57596509 140.64941406 460.52441406 C138.15029533 458.21468976 135.63718929 455.9205045 133.125 453.625 C127.85411407 448.80151022 122.62932465 443.93027474 117.42626953 439.03369141 C114.3479695 436.14731164 111.23608243 433.31501176 108.05078125 430.546875 C103.92368997 426.95749274 99.92080696 423.24763118 95.9375 419.5 C95.26912109 418.87480469 94.60074219 418.24960937 93.91210938 417.60546875 C90.63747806 414.53132507 87.40689762 411.42569555 84.2421875 408.23828125 C81.9673231 405.94764823 79.66425711 403.76171419 77.1875 401.6875 C73.13967662 398.20339671 69.41195451 394.45011544 65.6875 390.625 C63.69812253 388.68188712 61.71788604 386.89318817 59.60375977 385.09936523 C53.68655026 379.93765831 48.19590756 374.33997665 42.65234375 368.78515625 C41.46999923 367.603487 40.28750643 366.42196609 39.10487366 365.24058533 C36.63819466 362.77537277 34.17331297 360.30838114 31.7097168 357.84008789 C28.57078068 354.69545516 25.42737529 351.55533444 22.28259945 348.41654301 C19.84337994 345.98095768 17.40657259 343.54297011 14.97046089 341.10427666 C13.81310723 339.94626161 12.65502613 338.78897307 11.49616814 337.63246346 C5.93019257 332.07529706 0.40462184 326.52494298 -4.69142151 320.52532959 C-6.3161029 318.63153826 -8.06574209 316.90428473 -9.875 315.1875 C-13.80737407 311.31562399 -17.22120178 307.12827359 -20.66796875 302.82421875 C-22.91256571 300.10588775 -25.2637984 297.55857206 -27.6875 295 C-56.6372587 263.48393299 -80.42028154 220.49224631 -87 178 C-87.16628906 177.01169189 -87.33257812 176.02338379 -87.50390625 175.00512695 C-88.92945143 166.01082783 -89.40006461 157.15140546 -89.375 148.0625 C-89.37478851 147.34788605 -89.37457703 146.63327209 -89.37435913 145.89700317 C-89.23588952 98.68280477 -68.24406418 58.83591533 -35.26220703 25.8894043 C-25.01314307 15.91893927 -12.86542593 6.39212803 0 0 Z " fill="#50A8DC" transform="translate(330,312)"/>
<path d="M0 0 C0.90105469 0.40089844 1.80210937 0.80179687 2.73046875 1.21484375 C17.57219298 8.43683932 27.99734738 20.86766105 33.4375 36.375 C37.99583026 51.73677378 36.84362388 67.48712822 29.375 81.75 C21.16102088 96.53516242 8.89516225 106.43629909 -7.28125 111.34375 C-24.43482457 115.484268 -41.07187006 113.0749601 -56.28173828 104.11572266 C-69.768799 95.35813989 -79.19831848 81.90201109 -82.61328125 66.17578125 C-84.71737371 48.89671896 -82.439979 33.37143056 -72 19 C-65.25027207 10.80589629 -57.63466569 4.57519178 -48 0 C-47.14921875 -0.43183594 -46.2984375 -0.86367188 -45.421875 -1.30859375 C-32.29295586 -6.85575403 -12.71328124 -6.30721107 0 0 Z " fill="#FDFDFD" transform="translate(537,470)"/>
<path d="M0 0 C8.36024666 6.25789052 14.85936285 13.14996157 16.71484375 23.65234375 C17.95928504 33.89767545 16.19982794 41.69915438 10.25 50.25 C4.83343961 57.02070049 -3.21656292 63.00188215 -12 64 C-24.28298717 64.69199928 -32.52581253 62.2948285 -41.98046875 54.33203125 C-49.20986784 47.59589606 -52.3954117 39.40863593 -53.3125 29.6875 C-52.33048163 18.09968321 -48.01591332 10.36649495 -39.4375 2.625 C-28.84182885 -5.93213039 -11.6889289 -7.26661746 0 0 Z " fill="#245078" transform="translate(713,387)"/>
<path d="M0 0 C7.35286929 5.07764181 12.78799125 12.18533225 14.63671875 21.0546875 C15.93897334 31.61275159 14.40668172 41.72998899 7.6875 50.4375 C-2.00161978 59.67596304 -10.72685556 62.75760909 -24.23828125 62.484375 C-30.28851891 61.70532051 -34.92673828 59.27992269 -40 56 C-40.61488281 55.61714844 -41.22976563 55.23429688 -41.86328125 54.83984375 C-47.7194513 50.61795371 -51.81446097 42.76715068 -54 36 C-55.01517354 25.67119945 -54.31788013 16.87231698 -48.046875 8.34375 C-43.36732265 2.78064581 -38.65814313 -1.09023898 -32 -4 C-31.030625 -4.433125 -30.06125 -4.86625 -29.0625 -5.3125 C-18.81387494 -7.61321175 -8.84778811 -5.47392338 0 0 Z " fill="#51A6D9" transform="translate(375,463)"/>
<path d="M0 0 C3.69862563 1.74657322 6.97716906 3.40220575 8.734375 7.24609375 C9.30611932 11.65669282 9.00385432 13.75204832 6.859375 17.68359375 C6.158125 18.52921875 5.456875 19.37484375 4.734375 20.24609375 C4.074375 20.24609375 3.414375 20.24609375 2.734375 20.24609375 C2.97671875 20.9009375 3.2190625 21.55578125 3.46875 22.23046875 C4.17969186 24.16641812 4.88211598 26.10550699 5.578125 28.046875 C6.32569714 30.1153263 7.09514736 32.17605764 7.890625 34.2265625 C10.91487106 42.40282774 12.37894553 50.22101712 9.609375 58.68359375 C6.15884277 63.39932113 2.2556028 66.40568448 -3.265625 68.24609375 C-11.50114615 69.19397885 -18.00993066 67.85754255 -25.015625 63.55859375 C-28.66477937 59.80807398 -31.11046323 56.12425926 -31.39892578 50.7734375 C-30.87073479 43.32114284 -28.60960407 38.1458338 -24.765625 31.80859375 C-23.75143644 30.08294042 -22.74086551 28.35515453 -21.734375 26.625 C-21.28513672 25.87806885 -20.83589844 25.1311377 -20.37304688 24.36157227 C-19.28584386 22.28471729 -18.61963079 20.56025398 -18.265625 18.24609375 C-18.595625 17.58609375 -18.925625 16.92609375 -19.265625 16.24609375 C-20.45106933 6.92760094 -20.45106933 6.92760094 -17.99609375 3.4453125 C-12.52264114 -1.0692871 -6.77952788 -2.25594635 0 0 Z " fill="#28537B" transform="translate(333.265625,360.75390625)"/>
<path d="M0 0 C-0.99 0.33 -1.98 0.66 -3 1 C-3.33 1.66 -3.66 2.32 -4 3 C-5.96589048 3.85408352 -7.97621346 4.60647447 -10 5.3125 C-10.61866943 5.5290625 -11.23733887 5.745625 -11.87475586 5.96875 C-17.44096649 7.8829345 -23.08275928 9.50645682 -28.74121094 11.12207031 C-34.25914573 12.72114529 -39.56311275 14.69262291 -44.90234375 16.81640625 C-50.17890567 18.83254529 -55.58951394 20.38720044 -61 22 C-63.79443622 22.84530173 -66.58520665 23.70201494 -69.375 24.5625 C-70.02895752 24.76037109 -70.68291504 24.95824219 -71.35668945 25.16210938 C-74.4835962 26.12754333 -77.46787555 27.20262327 -80.47265625 28.50390625 C-84.28642535 30.12148495 -88.07936003 31.26811218 -92.0625 32.375 C-97.57876695 33.94746694 -102.98795097 35.65311436 -108.375 37.625 C-121.52864579 42.41226259 -130.15717463 44.28889813 -143.53125 39.8515625 C-144.54702118 39.52358673 -145.56279236 39.19561096 -146.60934448 38.85769653 C-149.90942651 37.78970628 -153.20465395 36.70750554 -156.5 35.625 C-158.78566319 34.88219312 -161.07163528 34.1403361 -163.35791016 33.39941406 C-167.87210639 31.93506372 -172.38456211 30.46554339 -176.89550781 28.99121094 C-181.90191602 27.35594229 -186.91296135 25.73612131 -191.9296875 24.1328125 C-198.61213552 21.99632285 -205.28780219 19.83971525 -211.95800781 17.6652832 C-213.40899561 17.19254985 -214.86018909 16.72044763 -216.31152344 16.2487793 C-221.34439475 14.61304605 -226.37426495 12.96853272 -231.4006958 11.31311035 C-233.03914502 10.77468019 -234.67841992 10.23875558 -236.31854248 9.70544434 C-238.58718073 8.96701865 -240.85248543 8.2191463 -243.1171875 7.46875 C-243.80091431 7.24838074 -244.48464111 7.02801147 -245.18908691 6.80096436 C-249.88583257 5.22833487 -249.88583257 5.22833487 -251 3 C-241.4920289 4.3685716 -232.2822053 6.58211149 -223 9 C-217.85463948 10.33516102 -212.70879239 11.66843598 -207.5625 13 C-206.87603394 13.177659 -206.18956787 13.35531799 -205.4822998 13.5383606 C-196.19237925 15.94070462 -186.89688179 18.28058964 -177.54150391 20.41796875 C-172.23919955 21.63225247 -166.9406875 22.86293522 -161.6423645 24.0944519 C-159.68446769 24.54870292 -157.72591041 25.00010428 -155.76733398 25.45141602 C-149.33738395 26.94321832 -142.97852697 28.5051552 -136.67333984 30.46459961 C-128.80549971 32.04032321 -121.95873317 30.26599203 -114.3359375 28.296875 C-113.22626617 28.01781311 -112.11659485 27.73875122 -110.97329712 27.45123291 C-107.43823574 26.5596259 -103.90671411 25.65476349 -100.375 24.75 C-98.02494565 24.15673521 -95.67468687 23.56427957 -93.32421875 22.97265625 C-83.08237238 20.38459314 -72.85508483 17.78042273 -62.72729492 14.77197266 C-59.81593086 13.94789843 -56.89307139 13.27109931 -53.9375 12.625 C-47.04426098 11.08845288 -40.28689624 9.13267451 -33.50952148 7.15673828 C-29.62488323 6.02592978 -25.74656846 4.91550722 -21.81640625 3.953125 C-16.87723275 2.71959549 -12.03493355 1.20948274 -7.171875 -0.29296875 C-4.19286495 -0.95700917 -2.7907034 -1.08450602 0 0 Z " fill="#F2F5F7" transform="translate(641,316)"/>
<path d="M0 0 C0.66 0 1.32 0 2 0 C2.17015625 0.7734375 2.3403125 1.546875 2.515625 2.34375 C5.12531125 13.55984834 7.92909743 20.89905534 17.87890625 27.1875 C23.00524069 30.00439488 28.25536438 31.10534363 34 32 C34 32.66 34 33.32 34 34 C33.17757812 34.14695312 32.35515625 34.29390625 31.5078125 34.4453125 C22.88005481 36.17883425 14.67591419 38.11695297 9.15625 45.44921875 C5.56644894 51.61698968 3.5308068 58.05765687 2 65 C1.34 65 0.68 65 0 65 C-0.14695313 64.24976563 -0.29390625 63.49953125 -0.4453125 62.7265625 C-2.30594513 54.23608947 -5.00797234 45.92351004 -11.9375 40.1875 C-17.61524735 36.57438805 -24.60896632 34.93293812 -31 33 C-27.97254889 31.39055878 -24.93803627 30.26794699 -21.6875 29.1875 C-13.21361473 26.10711294 -7.90420473 22.28208137 -4 14 C-2.81167992 10.7073631 -1.85409088 7.39327996 -1 4 C-0.71382812 2.86304688 -0.71382812 2.86304688 -0.421875 1.703125 C-0.28265625 1.14109375 -0.1434375 0.5790625 0 0 Z " fill="#4BA3D9" transform="translate(252,256)"/>
<path d="M0 0 C0.33 0 0.66 0 1 0 C1.18175781 0.73605469 1.36351562 1.47210938 1.55078125 2.23046875 C3.59896144 10.18160926 5.58590735 16.55154441 13 21 C16.2824856 22.23154542 19.5949575 23.17229204 23 24 C20.27895216 25.81403189 18.17268346 26.69396378 15.125 27.75 C10.53465415 29.59147595 7.31321013 31.51430736 5 36 C3.47034927 39.94781145 2.17760164 43.9343139 1 48 C0.67 48 0.34 48 0 48 C-0.17015625 47.34773438 -0.3403125 46.69546875 -0.515625 46.0234375 C-2.35256952 39.39871203 -4.26686881 34.39982251 -9.5625 29.75 C-14.2222075 27.37778527 -18.85296753 26.69603998 -24 26 C-24 25.34 -24 24.68 -24 24 C-23.20335937 23.75765625 -22.40671875 23.5153125 -21.5859375 23.265625 C-11.58550502 20.52337423 -11.58550502 20.52337423 -4.5703125 13.4765625 C-2.46088635 9.03127463 -0.82116345 4.86517273 0 0 Z " fill="#439BD4" transform="translate(314,214)"/>
<path d="M0 0 C0.66 0 1.32 0 2 0 C0.33450689 4.38466554 -1.63847061 8.56723759 -3.75 12.75 C-4.07226562 13.43449219 -4.39453125 14.11898438 -4.7265625 14.82421875 C-5.734375 16.796875 -5.734375 16.796875 -8 20 C-11.265625 20.953125 -11.265625 20.953125 -14 21 C-11.01693428 15.18508388 -7.6601472 10.0296278 -3.55078125 4.9453125 C-1.85540848 2.87510875 -1.85540848 2.87510875 0 0 Z " fill="#62B0E2" transform="translate(421,479)"/>
<path d="M0 0 C4.18222306 2.38198043 7.94940402 5.12878153 11.75 8.0625 C12.33910156 8.50916016 12.92820312 8.95582031 13.53515625 9.41601562 C17.87760417 12.75520833 17.87760417 12.75520833 19 15 C18.01 15.99 17.02 16.98 16 18 C15.62190186 17.58637207 15.24380371 17.17274414 14.85424805 16.74658203 C13.13524158 14.86972107 11.41143776 12.99733198 9.6875 11.125 C9.09259766 10.47402344 8.49769531 9.82304687 7.88476562 9.15234375 C7.30791016 8.52714844 6.73105469 7.90195312 6.13671875 7.2578125 C5.60780029 6.6817627 5.07888184 6.10571289 4.53393555 5.51220703 C2.87076805 3.77726107 2.87076805 3.77726107 0 2 C0 1.34 0 0.68 0 0 Z " fill="#315880" transform="translate(702,317)"/>
<path d="M0 0 C7.55607786 1.10355089 14.74822618 2.59343789 22 5 C21.67 5.99 21.34 6.98 21 8 C13.74839665 6.180206 6.87619244 3.93841629 0 1 C0 0.67 0 0.34 0 0 Z " fill="#DAE1E9" transform="translate(390,319)"/>
<path d="M0 0 C-0.99 0.33 -1.98 0.66 -3 1 C-3.33 1.66 -3.66 2.32 -4 3 C-6.50390625 3.8515625 -6.50390625 3.8515625 -9.5625 4.625 C-10.57441406 4.88539063 -11.58632813 5.14578125 -12.62890625 5.4140625 C-13.41136719 5.60742188 -14.19382812 5.80078125 -15 6 C-15 4.68 -15 3.36 -15 2 C-13.25364835 1.46706165 -11.50272348 0.94909337 -9.75 0.4375 C-8.77546875 0.14746094 -7.8009375 -0.14257812 -6.796875 -0.44140625 C-4.03756068 -0.99249836 -2.6087176 -0.93789609 0 0 Z " fill="#DBE2EA" transform="translate(641,316)"/>
<path d="M0 0 C0.66 0.33 1.32 0.66 2 1 C-1.96 4.3 -5.92 7.6 -10 11 C-10.66 10.67 -11.32 10.34 -12 10 C-12 9.01 -12 8.02 -12 7 C-9.4453125 5.140625 -9.4453125 5.140625 -6.125 3.25 C-5.03445313 2.61578125 -3.94390625 1.9815625 -2.8203125 1.328125 C-1.88960938 0.88984375 -0.95890625 0.4515625 0 0 Z " fill="#68B0DD" transform="translate(330,312)"/>
<path d="M0 0 C3.1875 -0.0625 3.1875 -0.0625 7 1 C9.21913175 3.75107859 10.82523699 6.66538625 12 10 C11.67 10.66 11.34 11.32 11 12 C9.16364422 10.19047409 7.33083792 8.37759362 5.5 6.5625 C4.97535156 6.04623047 4.45070313 5.52996094 3.91015625 4.99804688 C2.58775448 3.68423213 1.29164432 2.34406495 0 1 C0 0.67 0 0.34 0 0 Z " fill="#4C96CF" transform="translate(492,791)"/>
<path d="M0 0 C0.66 0.33 1.32 0.66 2 1 C0.45036847 2.65795529 -1.11524769 4.30098044 -2.6875 5.9375 C-3.55761719 6.85402344 -4.42773438 7.77054688 -5.32421875 8.71484375 C-8.05441092 11.04646772 -9.48192553 11.70207297 -13 12 C-8.87675353 7.74790208 -4.48717034 3.86364295 0 0 Z " fill="#E3E6E8" transform="translate(528,797)"/>
<path d="M0 0 C0 0.99 0 1.98 0 3 C-0.66 3 -1.32 3 -2 3 C-2.20625 3.53625 -2.4125 4.0725 -2.625 4.625 C-4.57996944 8.0017654 -7.18223695 10.30474839 -10 13 C-10.66 12.67 -11.32 12.34 -12 12 C-10.37860535 10.18415766 -8.75313264 8.3722838 -7.125 6.5625 C-6.66480469 6.04623047 -6.20460938 5.52996094 -5.73046875 4.99804688 C-2.2265625 1.11328125 -2.2265625 1.11328125 0 0 Z " fill="#2E5B81" transform="translate(345,319)"/>
<path d="M0 0 C4.86896303 0.59619955 9.32790951 1.56976822 14 3 C13.67 4.32 13.34 5.64 13 7 C8.71 5.02 4.42 3.04 0 1 C0 0.67 0 0.34 0 0 Z " fill="#4B7196" transform="translate(555,394)"/>
<path d="M0 0 C5.94 0.99 5.94 0.99 12 2 C11.34 2.66 10.68 3.32 10 4 C7.87109375 3.828125 7.87109375 3.828125 5.4375 3.25 C4.22900391 2.97929687 4.22900391 2.97929687 2.99609375 2.703125 C1 2 1 2 0 0 Z " fill="#BDCCDC" transform="translate(390,319)"/>
<path d="M0 0 C0.66 0 1.32 0 2 0 C2.33 2.64 2.66 5.28 3 8 C2.01 8 1.02 8 0 8 C-0.98120464 4.94736336 -0.98120464 3.05263664 0 0 Z " fill="#62AAD8" transform="translate(252,256)"/>
<path d="M0 0 C3.53372712 1.96318174 6.24479785 4.04070881 9 7 C4.68381834 7 3.07210341 4.86729652 0 2 C0 1.34 0 0.68 0 0 Z " fill="#507297" transform="translate(702,317)"/>
<path d="M0 0 C2.475 0.99 2.475 0.99 5 2 C5 2.99 5 3.98 5 5 C4.01 5 3.02 5 2 5 C1.34 3.35 0.68 1.7 0 0 Z " fill="#3C6389" transform="translate(441,633)"/>
<path d="M0 0 C0 0.99 0 1.98 0 3 C-2.31 3 -4.62 3 -7 3 C-7 2.34 -7 1.68 -7 1 C-4.50935112 0.31292445 -2.62113708 0 0 0 Z " fill="#61ADDD" transform="translate(297,237)"/>
</svg>
